<svg width="50" height="45" xmlns="http://www.w3.org/2000/svg">

 <metadata id="metadata5">image/svg+xml</metadata>
 <g>
  <title>background</title>
  <rect fill="none" id="canvas_background" height="47" width="52" y="-1" x="-1"/>
 </g>
 <g>
  <title>Layer 1</title>
  <path fill="#35a0cb" stroke-width="0.264583" id="path3918" d="m-4819.037661,-17655.957058c-8.716273,-3.726663 -11.152589,-5.128962 -11.152589,-6.419189c0,-0.402686 -0.181973,-0.732161 -0.404401,-0.732161c-0.222411,0 -0.471108,-1.216497 -0.552636,-2.703338c-0.081545,-1.48684 -0.001838,-2.70296 0.177244,-2.702473c0.278958,0.000739 7.182486,2.601354 15.805867,5.954182c2.331694,0.906571 2.444521,1.0232 2.914091,3.01163c1.343275,5.68849 6.500614,6.451136 9.882855,1.461462c2.447545,-3.610772 11.3879,-27.459382 10.477852,-27.949894c-1.077317,-0.580678 -21.598825,-4.167566 -21.917704,-3.830925c-0.186635,0.197038 -1.573356,3.53885 -3.081593,7.426267c-5.459725,14.072051 -5.389743,13.943935 -6.861084,12.560304c-0.644525,-0.606104 6.888789,-21.727286 8.183872,-22.945182c0.58975,-0.554578 26.331025,4.295493 27.035707,5.093967c0.398603,0.451651 0.089867,1.79474 -1.391584,6.053902c-10.981761,31.572656 -12.432666,32.854413 -29.115897,25.721448zm6.532279,-18.79278c0,-6.236483 0,-6.236483 2.652729,-6.236483c2.357979,0 2.652729,0.092398 2.652729,0.831536c0,0.692939 -0.294749,0.831521 -1.768497,0.831521c-1.76848,0 -1.76848,0 -1.76848,4.573426c0,4.573426 0,4.573426 2.400089,4.573426c3.135801,0 3.789617,-0.614841 3.789617,-3.563709c0,-2.130296 0.062061,-2.257014 1.10529,-2.257014c1.009641,0 1.105306,0.156511 1.105306,1.808898c0,4.383554 -1.55439,5.674881 -6.830922,5.674881c-3.337859,0 -3.337859,0 -3.337859,-6.236483zm6.631821,-3.819674c0,-1.325081 0,-1.325081 1.326364,-0.130112c0.729496,0.657237 1.326364,1.253519 1.326364,1.325081c0,0.071499 -0.596868,0.130112 -1.326364,0.130112c-1.196293,0 -1.326364,-0.129955 -1.326364,-1.325081z"/>
  <path fill="#fefefe" stroke-width="0.264583" id="path3928" d="m21.780306,42.263622c-17.115171,-6.853209 -18.5691,-7.928831 -18.5691,-13.737501c0,-3.265646 -0.580626,-3.234454 6.909326,-0.37118c3.373285,1.289551 7.724896,2.93405 9.670236,3.65441c3.53696,1.309775 3.53696,1.309775 3.824558,3.509166c0.750852,5.74242 6.382908,5.725936 9.483333,-0.027814c2.070348,-3.842082 10.137467,-25.198126 9.680696,-25.627667c-0.413441,-0.388795 -20.778944,-4.136043 -21.029311,-3.869377c-0.138226,0.14724 -1.903247,4.570865 -3.922278,9.8303c-4.094209,10.665105 -4.059569,10.602029 -5.819844,10.602029c-2.105506,0 -2.055376,-1.337731 0.275082,-7.340955c1.140113,-2.936942 2.951321,-7.650631 4.024895,-10.474872c2.593007,-6.821373 2.52361,-6.717959 4.493196,-6.696211c0.903315,0.009428 7.213132,1.085757 14.021797,2.390645c15.018788,2.87836 14.079831,1.351449 9.129079,14.845493c-6.593104,17.970484 -8.431198,21.546827 -12.063072,23.470689c-2.297856,1.217236 -6.852963,1.146381 -10.108592,-0.157234l0,0.000079zm0,-21.858356c0,-6.652243 0,-6.652243 3.315919,-6.652243c3.315902,0 3.315902,0 3.315902,1.371688c0,1.322834 -0.055127,1.365639 -1.547422,1.201805c-1.547422,-0.169884 -1.547422,-0.169884 -1.547422,4.033258c0,4.203142 0,4.203142 1.699952,4.203142c2.336791,0 3.163389,-0.959149 3.163389,-3.670674c0,-2.150033 0,-2.150033 1.547422,-2.150033c1.547422,0 1.547422,0 1.547422,2.515241c0,4.72923 -1.391484,5.800059 -7.536874,5.800059c-3.958289,0 -3.958289,0 -3.958289,-6.652243zm7.073954,-4.245963c0,-2.167145 0,-2.167145 2.210596,-0.119583c1.215844,1.126158 2.210613,2.101367 2.210613,2.16713c0,0.065684 -0.994769,0.119583 -2.210613,0.119583c-2.210596,0 -2.210596,0 -2.210596,-2.16713z"/>
  <path fill="#ccd1d3" stroke-width="0.264583" id="path3926" d="m16.253791,39.258215c-11.463898,-4.890958 -12.567065,-5.823331 -12.590744,-10.641503c-0.012031,-2.443256 -0.437587,-2.473788 7.389741,0.530221c12.721517,4.882347 11.313557,4.115914 11.867063,6.459841c1.343292,5.68849 6.500614,6.451136 9.882855,1.461462c2.447545,-3.610772 11.387917,-27.459382 10.477852,-27.949894c-1.077317,-0.580678 -21.598825,-4.167566 -21.917687,-3.830925c-0.186635,0.197038 -1.573373,3.53885 -3.08161,7.426267c-5.435044,14.008426 -5.439272,14.016157 -6.923463,12.620442c-0.617889,-0.581056 7.000012,-21.833356 8.246268,-23.005319c0.589733,-0.554578 26.331008,4.295493 27.03569,5.093967c0.398603,0.451651 0.089867,1.79474 -1.391567,6.053902c-10.964349,31.52256 -12.447321,32.841198 -28.994398,25.781538zm6.410763,-18.852871c0,-6.236483 0,-6.236483 2.652729,-6.236483c2.357979,0 2.652729,0.092398 2.652729,0.831536c0,0.692939 -0.294749,0.831521 -1.76848,0.831521c-1.768497,0 -1.768497,0 -1.768497,4.573426c0,4.573426 0,4.573426 2.400089,4.573426c3.135801,0 3.789617,-0.614841 3.789617,-3.563709c0,-2.130296 0.062061,-2.257014 1.105306,-2.257014c1.009624,0 1.105306,0.156511 1.105306,1.808898c0,4.383554 -1.554407,5.674881 -6.830939,5.674881c-3.337859,0 -3.337859,0 -3.337859,-6.236483zm6.631821,-3.819674c0,-1.325081 0,-1.325081 1.326364,-0.130112c0.729496,0.657237 1.326364,1.253519 1.326364,1.325081c0,0.071499 -0.596868,0.130112 -1.326364,0.130112c-1.196293,0 -1.326364,-0.129955 -1.326364,-1.325081z"/>
  <path fill="#b3bdc2" stroke-width="0.264583" id="path3924" d="m16.253791,39.258215c-11.484167,-4.899617 -11.9073,-5.246644 -12.459937,-10.218765c-0.329724,-2.966547 -0.767729,-2.973021 7.258935,0.107484c12.721517,4.882347 11.313557,4.115914 11.867063,6.459841c1.343292,5.68849 6.500614,6.451136 9.882855,1.461462c2.447545,-3.610772 11.387917,-27.459382 10.477852,-27.949894c-1.077317,-0.580678 -21.598825,-4.167566 -21.917687,-3.830925c-0.186635,0.197038 -1.573373,3.53885 -3.08161,7.426267c-5.435044,14.008426 -5.439272,14.016157 -6.923463,12.620442c-0.617889,-0.581056 7.000012,-21.833356 8.246268,-23.005319c0.589733,-0.554578 26.331008,4.295493 27.03569,5.093967c0.398603,0.451651 0.089867,1.79474 -1.391567,6.053902c-10.964349,31.52256 -12.447321,32.841198 -28.994398,25.781538zm6.410763,-18.852871c0,-6.236483 0,-6.236483 2.652729,-6.236483c2.357979,0 2.652729,0.092398 2.652729,0.831536c0,0.692939 -0.294749,0.831521 -1.76848,0.831521c-1.768497,0 -1.768497,0 -1.768497,4.573426c0,4.573426 0,4.573426 2.400089,4.573426c3.135801,0 3.789617,-0.614841 3.789617,-3.563709c0,-2.130296 0.062061,-2.257014 1.105306,-2.257014c1.009624,0 1.105306,0.156511 1.105306,1.808898c0,4.383554 -1.554407,5.674881 -6.830939,5.674881c-3.337859,0 -3.337859,0 -3.337859,-6.236483zm6.631821,-3.819674c0,-1.325081 0,-1.325081 1.326364,-0.130112c0.729496,0.657237 1.326364,1.253519 1.326364,1.325081c0,0.071499 -0.596868,0.130112 -1.326364,0.130112c-1.196293,0 -1.326364,-0.129955 -1.326364,-1.325081z"/>
  <path fill="#94abb4" stroke-width="0.264583" id="path3922" d="m16.253791,39.258215c-11.501178,-4.906861 -11.818336,-5.166126 -12.418061,-10.150881c-0.366152,-3.043451 -0.822755,-3.045949 7.217059,0.039599c12.721517,4.882347 11.313557,4.115914 11.867063,6.459841c1.343292,5.68849 6.500614,6.451136 9.882855,1.461462c2.447545,-3.610772 11.387917,-27.459382 10.477852,-27.949894c-1.077317,-0.580678 -21.598825,-4.167566 -21.917687,-3.830925c-0.186635,0.197038 -1.573373,3.53885 -3.08161,7.426267c-5.435044,14.008426 -5.439272,14.016157 -6.923463,12.620442c-0.617889,-0.581056 7.000012,-21.833356 8.246268,-23.005319c0.589733,-0.554578 26.331008,4.295493 27.03569,5.093967c0.398603,0.451651 0.089867,1.79474 -1.391567,6.053902c-10.964349,31.52256 -12.447321,32.841198 -28.994398,25.781538zm6.410763,-18.852871c0,-6.236483 0,-6.236483 2.652729,-6.236483c2.357979,0 2.652729,0.092398 2.652729,0.831536c0,0.692939 -0.294749,0.831521 -1.76848,0.831521c-1.768497,0 -1.768497,0 -1.768497,4.573426c0,4.573426 0,4.573426 2.400089,4.573426c3.135801,0 3.789617,-0.614841 3.789617,-3.563709c0,-2.130296 0.062061,-2.257014 1.105306,-2.257014c1.009624,0 1.105306,0.156511 1.105306,1.808898c0,4.383554 -1.554407,5.674881 -6.830939,5.674881c-3.337859,0 -3.337859,0 -3.337859,-6.236483zm6.631821,-3.819674c0,-1.325081 0,-1.325081 1.326364,-0.130112c0.729496,0.657237 1.326364,1.253519 1.326364,1.325081c0,0.071499 -0.596868,0.130112 -1.326364,0.130112c-1.196293,0 -1.326364,-0.129955 -1.326364,-1.325081z"/>
  <path fill="#35a0cb" stroke-width="0.264583" id="path3920" d="m15.872421,39.177895c-11.194381,-4.786193 -11.633923,-5.150962 -12.249239,-10.165652c-0.361556,-2.946621 -0.825596,-2.954023 7.169753,0.114398c12.721517,4.882347 11.313557,4.115914 11.867063,6.459841c1.343292,5.68849 6.500614,6.451136 9.882855,1.461462c2.447545,-3.610772 11.387917,-27.459382 10.477852,-27.949894c-1.077317,-0.580678 -21.598825,-4.167566 -21.917687,-3.830925c-0.186635,0.197038 -1.573373,3.53885 -3.08161,7.426267c-5.459725,14.072051 -5.389743,13.943935 -6.861084,12.560304c-0.644525,-0.606104 6.888789,-21.727286 8.183889,-22.945182c0.589733,-0.554578 26.331008,4.295493 27.03569,5.093967c0.398603,0.451651 0.089867,1.79474 -1.391567,6.053902c-10.981761,31.572656 -12.432666,32.854413 -29.115914,25.721448l0,0.000063zm6.532279,-18.792843c0,-6.236483 0,-6.236483 2.652729,-6.236483c2.357979,0 2.652729,0.092398 2.652729,0.831536c0,0.692939 -0.294749,0.831521 -1.76848,0.831521c-1.768497,0 -1.768497,0 -1.768497,4.573426c0,4.573426 0,4.573426 2.400089,4.573426c3.135801,0 3.789617,-0.614841 3.789617,-3.563709c0,-2.130296 0.062061,-2.257014 1.105306,-2.257014c1.009624,0 1.105306,0.156511 1.105306,1.808898c0,4.383554 -1.554407,5.674881 -6.830939,5.674881c-3.337859,0 -3.337859,0 -3.337859,-6.236483zm6.631821,-3.819674c0,-1.325081 0,-1.325081 1.326364,-0.130112c0.729496,0.657237 1.326364,1.253519 1.326364,1.325081c0,0.071499 -0.596868,0.130112 -1.326364,0.130112c-1.196293,0 -1.326364,-0.129955 -1.326364,-1.325081z"/>
 </g>
</svg>