<?xml version="1.0" encoding="UTF-8" standalone="no"?>
<!-- Created with Inkscape (http://www.inkscape.org/) -->

<svg
   xmlns:dc="http://purl.org/dc/elements/1.1/"
   xmlns:cc="http://creativecommons.org/ns#"
   xmlns:rdf="http://www.w3.org/1999/02/22-rdf-syntax-ns#"
   xmlns:svg="http://www.w3.org/2000/svg"
   xmlns="http://www.w3.org/2000/svg"
   xmlns:sodipodi="http://sodipodi.sourceforge.net/DTD/sodipodi-0.dtd"
   xmlns:inkscape="http://www.inkscape.org/namespaces/inkscape"
   width="210mm"
   height="297mm"
   viewBox="0 0 210 297"
   version="1.1"
   id="svg8"
   inkscape:version="0.92.2 (5c3e80d, 2017-08-06)"
   sodipodi:docname="logo.svg">
  <defs
     id="defs2" />
  <sodipodi:namedview
     id="base"
     pagecolor="#ffffff"
     bordercolor="#666666"
     borderopacity="1.0"
     inkscape:pageopacity="0.0"
     inkscape:pageshadow="2"
     inkscape:zoom="2.8"
     inkscape:cx="171.04352"
     inkscape:cy="511.04341"
     inkscape:document-units="mm"
     inkscape:current-layer="layer1"
     showgrid="false"
     inkscape:window-width="3200"
     inkscape:window-height="1671"
     inkscape:window-x="0"
     inkscape:window-y="55"
     inkscape:window-maximized="1" />
  <metadata
     id="metadata5">
    <rdf:RDF>
      <cc:Work
         rdf:about="">
        <dc:format>image/svg+xml</dc:format>
        <dc:type
           rdf:resource="http://purl.org/dc/dcmitype/StillImage" />
        <dc:title></dc:title>
      </cc:Work>
    </rdf:RDF>
  </metadata>
  <g
     inkscape:label="Layer 1"
     inkscape:groupmode="layer"
     id="layer1">
    <g
       id="g3916"
       transform="matrix(1.6710101,0,0,1.5713973,-107.61653,-96.631128)"
       style="">
      <path
         style="fill:#fefefe;stroke-width:0.26458335"
         d="m 81.794041,156.88479 c -10.242415,-4.36122 -11.1125,-5.04572 -11.1125,-8.74222 0,-2.07818 -0.347469,-2.05833 4.134815,-0.23621 2.018716,0.82064 4.622894,1.86716 5.78706,2.32558 2.116667,0.83351 2.116667,0.83351 2.28877,2.23315 0.449343,3.65434 3.819789,3.64385 5.675211,-0.0177 1.238981,-2.44501 6.066675,-16.03549 5.793326,-16.30884 -0.247427,-0.24742 -12.434967,-2.63208 -12.584792,-2.46238 -0.08272,0.0937 -1.138986,2.90879 -2.347256,6.25577 -2.450134,6.78702 -2.42941,6.74688 -3.482823,6.74688 -1.260025,0 -1.230027,-0.8513 0.164613,-4.67161 0.682296,-1.869 1.766195,-4.86868 2.408665,-6.66596 1.551758,-4.34096 1.510232,-4.27515 2.688908,-4.26131 0.540583,0.006 4.316628,0.69095 8.391212,1.52135 8.987854,1.83172 8.425937,0.86003 5.463206,9.44732 -3.945573,11.43599 -5.045567,13.71189 -7.219022,14.93619 -1.375137,0.77462 -4.10109,0.72953 -6.049393,-0.10006 z m 0,-13.91009 c 0,-4.23333 0,-4.23333 1.984375,-4.23333 1.984375,0 1.984375,0 1.984375,0.87291 0,0.84182 -0.03299,0.86906 -0.926041,0.7648 -0.926042,-0.10811 -0.926042,-0.10811 -0.926042,2.56667 0,2.67478 0,2.67478 1.017326,2.67478 1.398423,0 1.893091,-0.61038 1.893091,-2.33593 0,-1.36823 0,-1.36823 0.926041,-1.36823 0.926042,0 0.926042,0 0.926042,1.60064 0,3.00957 -0.832722,3.69102 -4.510366,3.69102 -2.368801,0 -2.368801,0 -2.368801,-4.23333 z m 4.233334,-2.70203 c 0,-1.37912 0,-1.37912 1.322916,-0.0761 0.727605,0.71666 1.322917,1.33726 1.322917,1.37911 0,0.0418 -0.595312,0.0761 -1.322917,0.0761 -1.322916,0 -1.322916,0 -1.322916,-1.37911 z"
         id="path3928"
         inkscape:connector-curvature="0" />
      <path
         style="fill:#ccd1d3;stroke-width:0.26458335"
         d="m 78.48675,154.97222 c -6.860462,-3.11249 -7.520638,-3.70583 -7.534815,-6.772 -0.0072,-1.55483 -0.261865,-1.57426 4.422321,0.33742 7.613073,3.10701 6.770493,2.61927 7.101731,4.11089 0.803879,3.62002 3.890234,4.10535 5.914303,0.93004 1.46471,-2.29781 6.814986,-17.4745 6.270371,-17.78665 -0.644714,-0.36953 -12.925614,-2.65214 -13.116435,-2.43791 -0.11169,0.12539 -0.941562,2.25204 -1.844159,4.7259 -3.252546,8.91463 -3.25508,8.91955 -4.143279,8.03135 -0.369766,-0.36977 4.189092,-13.89423 4.934897,-14.64004 0.352924,-0.35292 15.757546,2.73355 16.179256,3.24168 0.238536,0.28742 0.05378,1.14213 -0.832776,3.85256 -6.561503,20.06021 -7.448971,20.89936 -17.351415,16.40676 z m 3.836458,-11.99752 c 0,-3.96875 0,-3.96875 1.5875,-3.96875 1.411111,0 1.5875,0.0588 1.5875,0.52917 0,0.44097 -0.176389,0.52916 -1.058333,0.52916 -1.058334,0 -1.058334,0 -1.058334,2.91042 0,2.91042 0,2.91042 1.43631,2.91042 1.876593,0 2.267857,-0.39127 2.267857,-2.26786 0,-1.35567 0.03714,-1.43631 0.661458,-1.43631 0.604201,0 0.661459,0.0996 0.661459,1.15114 0,2.78959 -0.930213,3.61136 -4.087903,3.61136 -1.997514,0 -1.997514,0 -1.997514,-3.96875 z m 3.96875,-2.43075 c 0,-0.84325 0,-0.84325 0.79375,-0.0828 0.436563,0.41825 0.79375,0.79771 0.79375,0.84325 0,0.0455 -0.357187,0.0828 -0.79375,0.0828 -0.71591,0 -0.79375,-0.0827 -0.79375,-0.84325 z"
         id="path3926"
         inkscape:connector-curvature="0" />
      <path
         style="fill:#b3bdc2;stroke-width:0.26458335"
         d="m 78.48675,154.97222 c -6.872592,-3.118 -7.125814,-3.33884 -7.456532,-6.50298 -0.197318,-1.88784 -0.459441,-1.89196 4.344038,0.0684 7.613073,3.10701 6.770493,2.61927 7.101731,4.11089 0.803879,3.62002 3.890234,4.10535 5.914303,0.93004 1.46471,-2.29781 6.814986,-17.4745 6.270371,-17.78665 -0.644714,-0.36953 -12.925614,-2.65214 -13.116435,-2.43791 -0.11169,0.12539 -0.941562,2.25204 -1.844159,4.7259 -3.252546,8.91463 -3.25508,8.91955 -4.143279,8.03135 -0.369766,-0.36977 4.189092,-13.89423 4.934897,-14.64004 0.352924,-0.35292 15.757546,2.73355 16.179256,3.24168 0.238536,0.28742 0.05378,1.14213 -0.832776,3.85256 -6.561503,20.06021 -7.448971,20.89936 -17.351415,16.40676 z m 3.836458,-11.99752 c 0,-3.96875 0,-3.96875 1.5875,-3.96875 1.411111,0 1.5875,0.0588 1.5875,0.52917 0,0.44097 -0.176389,0.52916 -1.058333,0.52916 -1.058334,0 -1.058334,0 -1.058334,2.91042 0,2.91042 0,2.91042 1.43631,2.91042 1.876593,0 2.267857,-0.39127 2.267857,-2.26786 0,-1.35567 0.03714,-1.43631 0.661458,-1.43631 0.604201,0 0.661459,0.0996 0.661459,1.15114 0,2.78959 -0.930213,3.61136 -4.087903,3.61136 -1.997514,0 -1.997514,0 -1.997514,-3.96875 z m 3.96875,-2.43075 c 0,-0.84325 0,-0.84325 0.79375,-0.0828 0.436563,0.41825 0.79375,0.79771 0.79375,0.84325 0,0.0455 -0.357187,0.0828 -0.79375,0.0828 -0.71591,0 -0.79375,-0.0827 -0.79375,-0.84325 z"
         id="path3924"
         inkscape:connector-curvature="0" />
      <path
         style="fill:#94abb4;stroke-width:0.26458335"
         d="m 78.48675,154.97222 c -6.882766,-3.12261 -7.072574,-3.2876 -7.431465,-6.45978 -0.219122,-1.93678 -0.492374,-1.93837 4.318971,0.0252 7.613073,3.10701 6.770493,2.61927 7.101731,4.11089 0.803879,3.62002 3.890234,4.10535 5.914303,0.93004 1.46471,-2.29781 6.814986,-17.4745 6.270371,-17.78665 -0.644714,-0.36953 -12.925614,-2.65214 -13.116435,-2.43791 -0.11169,0.12539 -0.941562,2.25204 -1.844159,4.7259 -3.252546,8.91463 -3.25508,8.91955 -4.143279,8.03135 -0.369766,-0.36977 4.189092,-13.89423 4.934897,-14.64004 0.352924,-0.35292 15.757546,2.73355 16.179256,3.24168 0.238536,0.28742 0.05378,1.14213 -0.832776,3.85256 -6.561503,20.06021 -7.448971,20.89936 -17.351415,16.40676 z m 3.836458,-11.99752 c 0,-3.96875 0,-3.96875 1.5875,-3.96875 1.411111,0 1.5875,0.0588 1.5875,0.52917 0,0.44097 -0.176389,0.52916 -1.058333,0.52916 -1.058334,0 -1.058334,0 -1.058334,2.91042 0,2.91042 0,2.91042 1.43631,2.91042 1.876593,0 2.267857,-0.39127 2.267857,-2.26786 0,-1.35567 0.03714,-1.43631 0.661458,-1.43631 0.604201,0 0.661459,0.0996 0.661459,1.15114 0,2.78959 -0.930213,3.61136 -4.087903,3.61136 -1.997514,0 -1.997514,0 -1.997514,-3.96875 z m 3.96875,-2.43075 c 0,-0.84325 0,-0.84325 0.79375,-0.0828 0.436563,0.41825 0.79375,0.79771 0.79375,0.84325 0,0.0455 -0.357187,0.0828 -0.79375,0.0828 -0.71591,0 -0.79375,-0.0827 -0.79375,-0.84325 z"
         id="path3922"
         inkscape:connector-curvature="0" />
      <path
         style="fill:#619bb3;stroke-width:0.26458335"
         d="m 78.414029,154.93398 c -6.699165,-3.04582 -6.962204,-3.27795 -7.330435,-6.46918 -0.216372,-1.87516 -0.49407,-1.87987 4.290662,0.0728 7.613073,3.10701 6.770493,2.61927 7.101731,4.11089 0.803879,3.62002 3.890234,4.10535 5.914303,0.93004 1.46471,-2.29781 6.814986,-17.4745 6.270371,-17.78665 -0.644714,-0.36953 -12.925614,-2.65214 -13.116435,-2.43791 -0.11169,0.12539 -0.941562,2.25204 -1.844159,4.7259 -3.267316,8.95512 -3.225439,8.87359 -4.105947,7.99308 -0.38571,-0.38571 4.122531,-13.82673 4.897565,-14.60177 0.352924,-0.35292 15.757546,2.73355 16.179256,3.24168 0.238536,0.28742 0.05378,1.14213 -0.832776,3.85256 -6.57193,20.09209 -7.440209,20.90777 -17.424136,16.36852 z m 3.909179,-11.95928 c 0,-3.96875 0,-3.96875 1.5875,-3.96875 1.411111,0 1.5875,0.0588 1.5875,0.52917 0,0.44097 -0.176389,0.52916 -1.058333,0.52916 -1.058334,0 -1.058334,0 -1.058334,2.91042 0,2.91042 0,2.91042 1.43631,2.91042 1.876593,0 2.267857,-0.39127 2.267857,-2.26786 0,-1.35567 0.03714,-1.43631 0.661458,-1.43631 0.604201,0 0.661459,0.0996 0.661459,1.15114 0,2.78959 -0.930213,3.61136 -4.087903,3.61136 -1.997514,0 -1.997514,0 -1.997514,-3.96875 z m 3.96875,-2.43075 c 0,-0.84325 0,-0.84325 0.79375,-0.0828 0.436563,0.41825 0.79375,0.79771 0.79375,0.84325 0,0.0455 -0.357187,0.0828 -0.79375,0.0828 -0.71591,0 -0.79375,-0.0827 -0.79375,-0.84325 z"
         id="path3920"
         inkscape:connector-curvature="0" />
      <path
         style="fill:#35a0cb;stroke-width:0.26458335"
         d="m 78.414029,154.93398 c -5.216163,-2.37156 -6.674155,-3.26395 -6.674155,-4.08502 0,-0.25626 -0.108903,-0.46593 -0.242007,-0.46593 -0.133104,0 -0.281932,-0.77415 -0.330729,-1.72034 -0.0488,-0.94619 -0.0011,-1.7201 0.106076,-1.71979 0.16694,4.7e-4 4.298284,1.65544 9.458869,3.7891 1.395374,0.57692 1.462903,0.65114 1.743904,1.91653 0.803879,3.62002 3.890234,4.10535 5.914303,0.93004 1.46471,-2.29781 6.814986,-17.4745 6.270371,-17.78665 -0.644714,-0.36953 -12.925614,-2.65214 -13.116435,-2.43791 -0.11169,0.12539 -0.941562,2.25204 -1.844159,4.7259 -3.267316,8.95512 -3.225439,8.87359 -4.105947,7.99308 -0.38571,-0.38571 4.122531,-13.82673 4.897565,-14.60177 0.352924,-0.35292 15.757546,2.73355 16.179256,3.24168 0.238536,0.28742 0.05378,1.14213 -0.832776,3.85256 -6.57193,20.09209 -7.440209,20.90777 -17.424136,16.36852 z m 3.909179,-11.95928 c 0,-3.96875 0,-3.96875 1.5875,-3.96875 1.411111,0 1.5875,0.0588 1.5875,0.52917 0,0.44097 -0.176389,0.52916 -1.058333,0.52916 -1.058334,0 -1.058334,0 -1.058334,2.91042 0,2.91042 0,2.91042 1.43631,2.91042 1.876593,0 2.267857,-0.39127 2.267857,-2.26786 0,-1.35567 0.03714,-1.43631 0.661458,-1.43631 0.604201,0 0.661459,0.0996 0.661459,1.15114 0,2.78959 -0.930213,3.61136 -4.087903,3.61136 -1.997514,0 -1.997514,0 -1.997514,-3.96875 z m 3.96875,-2.43075 c 0,-0.84325 0,-0.84325 0.79375,-0.0828 0.436563,0.41825 0.79375,0.79771 0.79375,0.84325 0,0.0455 -0.357187,0.0828 -0.79375,0.0828 -0.71591,0 -0.79375,-0.0827 -0.79375,-0.84325 z"
         id="path3918"
         inkscape:connector-curvature="0" />
    </g>
    <text
       xml:space="preserve"
       style="font-style:normal;font-variant:normal;font-weight:normal;font-stretch:normal;font-size:26.58279419px;line-height:1.25;font-family:Utopia;-inkscape-font-specification:'Utopia, Normal';font-variant-ligatures:normal;font-variant-caps:normal;font-variant-numeric:normal;font-feature-settings:normal;text-align:start;letter-spacing:0px;word-spacing:0px;writing-mode:lr-tb;text-anchor:start;fill:#000000;fill-opacity:1;stroke:none;stroke-width:0.39505702"
       x="57.788479"
       y="142.18529"
       id="text3932"
       transform="scale(1.0336323,0.96746202)"><tspan
         sodipodi:role="line"
         id="tspan3930"
         x="57.788479"
         y="142.18529"
         style="font-style:normal;font-variant:normal;font-weight:normal;font-stretch:normal;font-size:26.58279419px;font-family:Utopia;-inkscape-font-specification:'Utopia, Normal';font-variant-ligatures:normal;font-variant-caps:normal;font-variant-numeric:normal;font-feature-settings:normal;text-align:start;writing-mode:lr-tb;text-anchor:start;stroke-width:0.39505702">Docket</tspan></text>
  </g>
</svg>
